<svg width="32" height="33" viewBox="0 0 32 33" fill="none" xmlns="http://www.w3.org/2000/svg">
<rect y="0.776611" width="32" height="32" rx="16" fill="#741B75"/>
<path d="M10.5801 13.6262C10.6338 10.9836 12.5029 9.13599 15.8008 9.13599C18.873 9.13599 20.9033 10.844 20.9033 13.2932C20.9033 14.9153 20.1191 16.0432 18.6045 16.9348C17.1758 17.762 16.7783 18.2883 16.7783 19.3411V19.9104H13.9316L13.9102 19.2874C13.7705 17.6008 14.3613 16.634 15.8438 15.7639C17.2295 14.9368 17.6484 14.4104 17.6484 13.3899C17.6484 12.3694 16.832 11.6282 15.6074 11.6282C14.3721 11.6282 13.5557 12.4124 13.4912 13.6262H10.5801ZM15.3926 25.0452C14.4258 25.0452 13.6416 24.304 13.6416 23.3586C13.6416 22.4133 14.4258 21.6721 15.3926 21.6721C16.3701 21.6721 17.1543 22.4133 17.1543 23.3586C17.1543 24.304 16.3701 25.0452 15.3926 25.0452Z" fill="white"/>
</svg>
